<svg width="17.766" height="13.322" fill="none" xmlns="http://www.w3.org/2000/svg"><path d="m2.418 6.661 4.95-4.95a.99.99 0 0 0 0-1.414.99.99 0 0 0-1.414 0L.297 5.954a.99.99 0 0 0 0 1.414l5.657 5.657a.99.99 0 0 0 1.414 0 .99.99 0 0 0 0-1.414l-4.95-4.95Z" fill="#FFF"/><path d="M17.766 5.661H1.004v2h16.762v-2Zm-15.348 1 4.95-4.95a.99.99 0 0 0 0-1.414.99.99 0 0 0-1.414 0L.297 5.954a.99.99 0 0 0 0 1.414l5.657 5.657a.99.99 0 0 0 1.414 0 .99.99 0 0 0 0-1.414l-4.95-4.95Z" fill="#011C44" fill-rule="evenodd"/></svg>