<svg width="16.333" height="28.001" viewBox="0 0 16.334 28.002" fill="none" xmlns="http://www.w3.org/2000/svg"><path d="M15.753.208A37.391 37.391 0 0 0 11.704 0c-4.484 0-7.27 2.856-7.27 7.454v3.12H.666a.666.666 0 0 0-.667.668v5.133a.666.666 0 0 0 .667.666h3.766v10.294a.666.666 0 0 0 .667.666h5.304a.667.667 0 0 0 .667-.666V17.041h3.754a.665.665 0 0 0 .662-.58l.662-5.133a.664.664 0 0 0-.386-.694.668.668 0 0 0-.275-.06H11.07V7.964c0-1.294.26-1.834 1.877-1.834h2.718a.667.667 0 0 0 .668-.666V.87a.668.668 0 0 0-.58-.662ZM15 4.795l-2.053.001c-2.876 0-3.21 1.808-3.21 3.167v3.28a.668.668 0 0 0 .666.667h4.327l-.491 3.8h-3.835a.666.666 0 0 0-.667.666v10.291h-3.97V16.376a.666.666 0 0 0-.667-.667H1.334v-3.8H5.1a.666.666 0 0 0 .667-.666v-3.79c0-3.831 2.22-6.12 5.937-6.12 1.345 0 2.56.074 3.296.138v3.324Z" fill="#011C44"/></svg>