<svg width="24.5" height="24.5" fill="none" xmlns="http://www.w3.org/2000/svg"><path d="M12.25 6.5a5.749 5.749 0 1 0 0 11.498 5.749 5.749 0 0 0 0-11.498Zm0 10a4.25 4.25 0 1 1 4.25-4.25 4.263 4.263 0 0 1-4.25 4.25ZM17.75 0h-11A6.749 6.749 0 0 0 0 6.75v11a6.749 6.749 0 0 0 6.75 6.75h11a6.748 6.748 0 0 0 6.75-6.75v-11A6.749 6.749 0 0 0 17.75 0ZM23 17.75A5.251 5.251 0 0 1 17.75 23h-11a5.251 5.251 0 0 1-5.25-5.25v-11A5.251 5.251 0 0 1 6.75 1.5h11A5.251 5.251 0 0 1 23 6.75v11Zm-3-12a1.251 1.251 0 1 1-2.502 0 1.251 1.251 0 0 1 2.502 0Z" fill="#011C44"/></svg>