<svg width="26.62" height="30.31" fill="none" xmlns="http://www.w3.org/2000/svg"><path d="m24.96 22.117-.172-.217c-1.372-1.734-2.519-2.637-3.503-2.755-.85-.117-1.673.472-2.548 1.077l-.935.584a2.018 2.018 0 0 1-.326.132c-.547.154-1.927.245-2.708-.47-.91-.831-2.32-2.354-3.417-3.685-1.049-1.377-2.2-3.095-2.802-4.176-.508-.916-.083-2.197.201-2.672.056-.093.13-.185.21-.276l.825-.761c.012-.012.017-.027.028-.038.008-.007.021-.005.03-.011.745-.628 1.514-1.275 1.62-2.106.123-.976-.483-2.296-1.858-4.03l-.168-.215C8.587 1.408 7.3-.242 5.452.03c-.727.108-1.376.356-2.046.776-.006.004-.01.012-.015.016-.006.004-.013.004-.018.008l-.932.69c-.01.006-.015.018-.024.026-.007.007-.017.008-.025.015-.108.09-.216.184-.323.28C1.124 2.682-.923 5.13.473 9.654c.902 2.923 2.76 6.333 5.388 9.883l-.025.021 1.45 1.805.01-.009c2.85 3.37 5.75 5.976 8.408 7.554 1.773 1.053 3.322 1.401 4.597 1.401 1.678 0 2.879-.603 3.481-.995l.38-.253c.042-.03.072-.07.103-.108l.825-.622c.01-.007.015-.018.024-.026.004-.004.011-.003.016-.007.587-.536.994-1.097 1.276-1.762.732-1.706-.578-3.34-1.445-4.42Zm.466 4c-.22.518-.54.958-1.005 1.385l-1.228.924c-1.112.722-3.49 1.616-6.943-.435-2.657-1.577-5.582-4.244-8.46-7.712l-.78-.984C4.3 15.7 2.393 12.258 1.493 9.34c-1.17-3.793.304-5.827 1.29-6.706.1-.091.2-.175.3-.259l.003-.004.895-.663a4.063 4.063 0 0 1 1.628-.624c1.239-.186 2.247 1.12 2.987 2.07l.173.22c1.536 1.937 1.684 2.858 1.636 3.234-.053.418-.688.953-1.248 1.423l-.078.067-.007.009c-.004.003-.009.004-.012.007l-.852.788c-.006.005-.008.012-.014.018-.005.007-.016.01-.021.017a2.986 2.986 0 0 0-.337.449c-.48.801-.93 2.457-.218 3.739.623 1.12 1.808 2.889 2.898 4.318 1.138 1.382 2.59 2.95 3.532 3.81.705.643 1.686.86 2.536.86.455 0 .872-.063 1.188-.153.167-.047.338-.117.516-.204.01-.005.016-.014.026-.02.006-.004.014-.002.019-.006l.99-.619c.032-.021.052-.049.08-.076l.012.013c.609-.422 1.303-.918 1.738-.846.386.046 1.26.417 2.799 2.36l.177.223c.75.934 1.776 2.214 1.297 3.333Z" fill="#011C44"/></svg>